<svg xmlns="http://www.w3.org/2000/svg" xmlns:xlink="http://www.w3.org/1999/xlink" width="405" height="145" viewBox="0 0 405 145">
  <defs>
    <mask id="a" x="0" y="0" width="145.0613" height="144.7869" maskUnits="userSpaceOnUse">
      <polygon points="0 0 145.061 0 145.061 144.787 0 144.787 0 0" style="fill: #fff;fill-rule: evenodd"/>
    </mask>
    <mask id="b" x="0.0003" y="0.0002" width="469.2075" height="144.9998" maskUnits="userSpaceOnUse">
      <polygon points="0 144.788 469.208 144.788 469.208 0 0 0 0 144.788" style="fill: #fff;fill-rule: evenodd"/>
    </mask>
    <mask id="c" x="0.0003" y="0.163" width="469.2075" height="144.7879" maskUnits="userSpaceOnUse">
      <polygon points="0 144.951 469.208 144.951 469.208 0.163 0 0.163 0 144.951" style="fill: #fff;fill-rule: evenodd"/>
    </mask>
  </defs>
  <path d="M108.7865,57.803H87.15V36.2076H57.911V57.803H36.2754V86.9851H57.911v21.5964H87.15V92.2294L86.016,91.0966c-2.5221-2.1458-5.4646-3.8322-7.7786-2.8488a5.3679,5.3679,0,0,1-5.5014-1.143L54.6672,69.0694l2.0792-2.0732,13.12,13.095a1.3406,1.3406,0,0,0,1.8895-.01,1.3242,1.3242,0,0,0,0-1.8767L58.6184,65.1277l2.068-2.066L73.8074,76.16a1.357,1.357,0,0,0,1.9-.02,1.3045,1.3045,0,0,0-.0164-1.8593L62.5687,61.1829l2.07-2.064L77.7576,72.215a1.3551,1.3551,0,0,0,1.9-.0185,1.3059,1.3059,0,0,0-.0164-1.8613L66.521,57.24l2.0669-2.063,18.0811,18.02a5.3337,5.3337,0,0,1,1.1442,5.492C86.829,81,88.52,83.9347,90.67,86.4519l.5342.5332h17.5828Z" style="fill: #0b4684;fill-rule: evenodd"/>
  <g style="mask: url(#a)">
    <path d="M72.5306,9.82a62.5741,62.5741,0,1,0,62.6925,62.5749A62.7056,62.7056,0,0,0,72.5306,9.82m0,134.9674a72.3936,72.3936,0,1,1,72.5307-72.3925,72.5436,72.5436,0,0,1-72.5307,72.3925" style="fill: #0b4684;fill-rule: evenodd"/>
  </g>
  <path d="M72.53,16.1145a56.3341,56.3341,0,1,0,39.8706,16.4841A56.067,56.067,0,0,0,72.53,16.1145m0,115.0624a58.76,58.76,0,1,1,58.895-58.7827A58.84,58.84,0,0,1,72.53,131.1769" style="fill: #0b4684;fill-rule: evenodd"/>
  <g style="mask: url(#b)">
    <path d="M111.9709,139.8917v1.0551h.59a.979.979,0,0,0,.613-.14.4992.4992,0,0,0,.1672-.4063.5081.5081,0,0,0-.1-.311.4279.4279,0,0,0-.2225-.1658,2.2814,2.2814,0,0,0-.4788-.0318Zm0,1.8174v1.7335H110.84v-4.3459h1.9541a1.9259,1.9259,0,0,1,1.2846.36,1.2047,1.2047,0,0,1,.4142.9547,1.1474,1.1474,0,0,1-.7668,1.1154l.8355,1.9156H113.314l-.7-1.7335Zm3.696-.4359a3.033,3.033,0,0,0-.8847-2.1868,2.8651,2.8651,0,0,0-2.1366-.9117,2.9365,2.9365,0,0,0-2.1664.9066,3.11,3.11,0,0,0,.0031,4.3735,2.9868,2.9868,0,0,0,4.29.0031,3,3,0,0,0,.895-2.1847ZM112.63,145a3.73,3.73,0,1,1,0-7.4608,3.5509,3.5509,0,0,1,2.6512,1.1123,3.7082,3.7082,0,0,1,.0031,5.23A3.54,3.54,0,0,1,112.63,145Z" style="fill: #0b4684;fill-rule: evenodd"/>
  </g>
  <polygon points="168.388 108.744 168.388 36.256 208.858 36.256 208.858 48.505 183.902 48.505 183.902 65.171 203.462 65.171 203.462 77.42 183.902 77.42 183.902 108.744 168.388 108.744" style="fill: #0b4684;fill-rule: evenodd"/>
  <path d="M235.6067,81.2355h14.0017L242.76,51.9183h-.2041Zm-20.1347,27.508,18.2943-72.4876h18.0894L269.64,108.7435h-13.49l-3.5771-15.2593H233.0507l-3.9851,15.2593Z" style="fill: #0b4684;fill-rule: evenodd"/>
  <path d="M298.5626,67.7819h7.9815c6.8578,0,11.0172-3.0125,11.0172-10.04S313.4019,47.702,306.5441,47.702h-7.9815Zm20.91,40.9622-13.49-29.5177h-7.42v29.5177h-15.514V36.2565h22.4846c18.66,0,27.5421,8.0318,27.5421,21.6865,0,9.0357-3.5976,15.5611-12.2537,18.4734L336.11,108.7441Z" style="fill: #0b4684;fill-rule: evenodd"/>
  <polygon points="351.178 108.744 351.178 36.256 393.672 36.256 393.672 48.505 366.692 48.505 366.692 65.171 387.264 65.171 387.264 77.42 366.692 77.42 366.692 96.496 394.797 96.496 394.797 108.744 351.178 108.744" style="fill: #0b4684;fill-rule: evenodd"/>
  <g style="mask: url(#c)">
    <path d="M400.695,103.2418v1.0345h.5782a.9672.9672,0,0,0,.6019-.1371.49.49,0,0,0,.163-.3981.5022.5022,0,0,0-.0984-.3049.4147.4147,0,0,0-.22-.1627,2.1852,2.1852,0,0,0-.4685-.0317Zm0,1.7825v1.6987h-1.1093v-4.261h1.9162a1.887,1.887,0,0,1,1.26.3541,1.1786,1.1786,0,0,1,.406.9353,1.125,1.125,0,0,1-.7515,1.0939l.8192,1.8777h-1.2232l-.6879-1.6987Zm3.6232-.4277a2.9772,2.9772,0,0,0-.8653-2.1448,2.8154,2.8154,0,0,0-2.0966-.8933,2.88,2.88,0,0,0-2.1243.8882,3.0494,3.0494,0,0,0,.0031,4.2886,2.93,2.93,0,0,0,4.2065.0041,2.9419,2.9419,0,0,0,.8766-2.1428Zm-2.9773,3.6542a3.6583,3.6583,0,1,1,0-7.3165,3.4852,3.4852,0,0,1,2.601,1.0918,3.639,3.639,0,0,1,.0021,5.1287,3.476,3.476,0,0,1-2.6031,1.096Z" style="fill: #0b4684;fill-rule: evenodd"/>
  </g>
</svg>
